<svg width="230" height="64" viewBox="0 0 230 64" fill="none" xmlns="http://www.w3.org/2000/svg">
<path d="M31.575 63.4465C25.33 63.4465 19.2253 61.5859 14.0329 58.1001C8.84039 54.6144 4.79335 49.6599 2.40352 43.8632C0.0136867 38.0665 -0.61161 31.6881 0.606716 25.5344C1.82504 19.3807 4.83227 13.7281 9.24811 9.29153C13.6639 4.85496 19.2901 1.83362 25.415 0.60957C31.5399 -0.614478 37.8886 0.013737 43.6582 2.41479C49.4277 4.81585 54.3591 8.8819 57.8286 14.0988C61.2981 19.3156 63.1499 25.449 63.1499 31.7232C63.1402 40.1338 59.8104 48.197 53.8911 54.1442C47.9717 60.0913 39.9462 63.4367 31.575 63.4465ZM31.575 5.32002C26.3785 5.32002 21.2988 6.86818 16.9781 9.76872C12.6574 12.6693 9.28984 16.7919 7.30125 21.6154C5.31265 26.4388 4.79234 31.7464 5.80612 36.8669C6.8199 41.9874 9.32222 46.6909 12.9967 50.3826C16.6711 54.0743 21.3526 56.5884 26.4492 57.6069C31.5458 58.6255 36.8286 58.1027 41.6295 56.1048C46.4304 54.1069 50.5337 50.7235 53.4207 46.3825C56.3077 42.0415 57.8486 36.9379 57.8486 31.7171C57.8357 24.7201 55.0634 18.0135 50.139 13.0659C45.2145 8.11832 38.5392 5.33303 31.575 5.32002Z" fill="#231815"/>
<path d="M54.4145 39.8293H8.74771C10.4158 44.5712 13.5062 48.6768 17.5933 51.5806C21.6804 54.4845 26.563 56.0438 31.5688 56.0438C36.5746 56.0438 41.4573 54.4845 45.5444 51.5806C49.6315 48.6768 52.7219 44.5712 54.39 39.8293H54.4145Z" fill="#8D8D8E"/>
<path d="M7.36424 31.7232C7.3623 34.4847 7.83019 37.2262 8.74771 39.8293H54.4145C56.2592 34.5842 56.2592 28.8623 54.4145 23.6172H8.74771C7.83019 26.2202 7.3623 28.9618 7.36424 31.7232Z" fill="#BABABA"/>
<path d="M8.74771 23.6172H54.4145C52.7463 18.8753 49.6559 14.7697 45.5689 11.8658C41.4818 8.96196 36.5991 7.40265 31.5933 7.40265C26.5875 7.40265 21.7049 8.96196 17.6178 11.8658C13.5307 14.7697 10.4403 18.8753 8.7722 23.6172H8.74771Z" fill="#8D8D8E"/>
<path d="M31.575 45.7029C39.2596 45.7029 45.4892 39.444 45.4892 31.7232C45.4892 24.0025 39.2596 17.7436 31.575 17.7436C23.8903 17.7436 17.6607 24.0025 17.6607 31.7232C17.6607 39.444 23.8903 45.7029 31.575 45.7029Z" fill="#231815"/>
<path d="M31.575 37.4922C34.7462 37.4922 37.317 34.9094 37.317 31.7232C37.317 28.5371 34.7462 25.9543 31.575 25.9543C28.4037 25.9543 25.833 28.5371 25.833 31.7232C25.833 34.9094 28.4037 37.4922 31.575 37.4922Z" fill="white"/>
<path d="M19.9746 44.4667C23.1459 44.4667 25.7166 41.8838 25.7166 38.6977C25.7166 35.5116 23.1459 32.9287 19.9746 32.9287C16.8034 32.9287 14.2326 35.5116 14.2326 38.6977C14.2326 41.8838 16.8034 44.4667 19.9746 44.4667Z" fill="white"/>
<path d="M31.7831 51.0721C34.9543 51.0721 37.5251 48.4892 37.5251 45.3031C37.5251 42.117 34.9543 39.5341 31.7831 39.5341C28.6119 39.5341 26.0411 42.117 26.0411 45.3031C26.0411 48.4892 28.6119 51.0721 31.7831 51.0721Z" fill="white"/>
<path d="M43.3834 44.0976C46.5547 44.0976 49.1255 41.5148 49.1255 38.3287C49.1255 35.1425 46.5547 32.5597 43.3834 32.5597C40.2122 32.5597 37.6414 35.1425 37.6414 38.3287C37.6414 41.5148 40.2122 44.0976 43.3834 44.0976Z" fill="white"/>
<path d="M43.1753 30.5178C46.3465 30.5178 48.9173 27.9349 48.9173 24.7488C48.9173 21.5627 46.3465 18.9798 43.1753 18.9798C40.0041 18.9798 37.4333 21.5627 37.4333 24.7488C37.4333 27.9349 40.0041 30.5178 43.1753 30.5178Z" fill="white"/>
<path d="M31.3668 23.9124C34.5381 23.9124 37.1088 21.3295 37.1088 18.1434C37.1088 14.9573 34.5381 12.3744 31.3668 12.3744C28.1956 12.3744 25.6248 14.9573 25.6248 18.1434C25.6248 21.3295 28.1956 23.9124 31.3668 23.9124Z" fill="white"/>
<path d="M19.7604 30.8868C22.9316 30.8868 25.5024 28.3039 25.5024 25.1178C25.5024 21.9317 22.9316 19.3488 19.7604 19.3488C16.5892 19.3488 14.0184 21.9317 14.0184 25.1178C14.0184 28.3039 16.5892 30.8868 19.7604 30.8868Z" fill="white"/>
<path d="M152.653 30.6531L149.549 29.2631C149.025 29.0147 148.619 28.5697 148.417 28.0237C148.215 27.4776 148.235 26.8739 148.471 26.3421C148.707 25.8103 149.142 25.3926 149.681 25.1787C150.22 24.9648 150.821 24.9716 151.355 25.1978L152.91 25.8928L153.988 23.4696L152.433 22.75C151.256 22.2239 149.92 22.1889 148.718 22.6525C147.516 23.1162 146.547 24.0406 146.023 25.2224C145.5 26.4042 145.465 27.7465 145.926 28.9541C146.388 30.1617 147.308 31.1357 148.484 31.6617L151.588 33.0517C151.931 33.1933 152.243 33.4028 152.504 33.6676C152.766 33.9325 152.971 34.2474 153.109 34.5936C153.247 34.9398 153.315 35.3104 153.307 35.6833C153.3 36.0561 153.219 36.4238 153.067 36.7643C152.916 37.1049 152.698 37.4115 152.427 37.666C152.155 37.9204 151.836 38.1175 151.487 38.2456C151.139 38.3737 150.768 38.4302 150.397 38.4117C150.027 38.3933 149.663 38.3002 149.329 38.138L146.238 36.7726L145.16 39.1959L148.264 40.5858C149.567 41.1208 151.026 41.1253 152.332 40.5983C153.638 40.0714 154.689 39.0543 155.262 37.7625C155.835 36.4707 155.885 35.0057 155.401 33.6775C154.918 32.3494 153.939 31.2625 152.671 30.6469L152.653 30.6531Z" fill="#231815"/>
<path d="M182.049 40.6842H185.036L176.901 22.3256L168.765 40.6842H171.752L173.674 36.379H180.127L182.049 40.6842ZM174.813 33.7836L176.901 29.0786L178.988 33.7836H174.813Z" fill="#231815"/>
<path d="M229.974 22.7377H227.189V40.6904H229.974V22.7377Z" fill="#231815"/>
<path d="M208.329 31.2435C208.988 30.5173 209.423 29.6144 209.581 28.6444C209.74 27.6743 209.614 26.6791 209.22 25.7794C208.825 24.8798 208.18 24.1146 207.361 23.5768C206.542 23.039 205.585 22.7517 204.607 22.75H199.746V40.7027H205.433C206.534 40.7033 207.606 40.3494 208.492 39.693C209.377 39.0366 210.031 38.1122 210.355 37.0555C210.68 35.9988 210.659 34.8654 210.295 33.8216C209.931 32.7778 209.244 31.8785 208.335 31.2558L208.329 31.2435ZM202.44 25.2839H204.601C205.269 25.2839 205.911 25.5508 206.384 26.0261C206.857 26.5013 207.123 27.1458 207.123 27.8178C207.123 28.4898 206.857 29.1344 206.384 29.6096C205.911 30.0848 205.269 30.3517 204.601 30.3517H202.44V25.2839ZM205.433 38.1257H202.44V32.8979H205.427C206.119 32.8979 206.782 33.174 207.271 33.6653C207.76 34.1567 208.035 34.8231 208.035 35.518C208.035 36.2129 207.76 36.8793 207.271 37.3706C206.782 37.862 206.119 38.138 205.427 38.138L205.433 38.1257Z" fill="#231815"/>
<path d="M129.177 40.6842H132.158L124.023 22.3256L115.887 40.6842H118.874L120.797 36.379H127.261L129.183 40.6842H129.177ZM121.947 33.7836L124.035 29.0786L126.122 33.7836H121.947Z" fill="#231815"/>
<path d="M106.607 22.7377H103.619L98.4713 34.3617L93.1394 22.3256L87.8075 34.3617L82.6532 22.7377H79.6659L87.8075 41.1086L93.1394 29.0725L98.4713 41.1086L106.607 22.7377Z" fill="#231815"/>
<path d="M135.831 56.1338C136.048 56.107 136.268 56.1242 136.479 56.1844C136.689 56.2446 136.885 56.3466 137.055 56.4844C137.206 56.6244 137.325 56.7949 137.406 56.9846C137.486 57.1744 137.525 57.3791 137.521 57.5853C137.528 57.9618 137.393 58.327 137.141 58.6062C136.986 58.7483 136.805 58.8575 136.607 58.9273C136.409 58.997 136.199 59.0259 135.99 59.0121H135.415V60.7034H134.533V56.1338H135.831ZM135.39 58.2433H135.751C135.956 58.2623 136.16 58.2125 136.333 58.1019C136.411 58.037 136.474 57.9552 136.516 57.8625C136.559 57.7699 136.58 57.6688 136.578 57.5668C136.582 57.4656 136.561 57.365 136.518 57.2738C136.474 57.1826 136.408 57.1037 136.327 57.044C136.142 56.9365 135.928 56.8872 135.715 56.9026H135.403L135.39 58.2433Z" fill="#231815"/>
<path d="M137.876 57.739H138.708V58.1818C138.791 58.0133 138.918 57.8708 139.075 57.7697C139.224 57.6817 139.393 57.637 139.565 57.6406C139.687 57.6429 139.807 57.6658 139.92 57.7082L139.816 58.4893C139.701 58.4108 139.563 58.3719 139.424 58.3786C139.32 58.374 139.217 58.3932 139.121 58.4347C139.026 58.4763 138.941 58.5391 138.873 58.6185C138.745 58.8123 138.686 59.0447 138.708 59.2766V60.7034H137.876V57.739Z" fill="#231815"/>
<path d="M142.859 58.0588C143.019 58.2064 143.146 58.3861 143.233 58.5864C143.319 58.7866 143.363 59.0029 143.361 59.2212C143.362 59.4393 143.318 59.6553 143.231 59.8554C143.145 60.0555 143.018 60.2354 142.859 60.3836C142.52 60.6546 142.101 60.8021 141.668 60.8021C141.235 60.8021 140.816 60.6546 140.477 60.3836C140.318 60.2354 140.191 60.0555 140.105 59.8554C140.018 59.6553 139.974 59.4393 139.975 59.2212C139.973 59.0029 140.017 58.7866 140.103 58.5864C140.19 58.3861 140.317 58.2064 140.477 58.0588C140.816 57.7879 141.235 57.6403 141.668 57.6403C142.101 57.6403 142.52 57.7879 142.859 58.0588ZM142.497 59.2212C142.497 59.0555 142.448 58.8936 142.357 58.7559C142.265 58.6182 142.135 58.511 141.982 58.4479C141.83 58.3848 141.662 58.3686 141.5 58.4013C141.339 58.4341 141.19 58.5144 141.074 58.632C140.958 58.7496 140.879 58.8992 140.848 59.0618C140.816 59.2245 140.834 59.3929 140.898 59.5456C140.961 59.6983 141.069 59.8285 141.207 59.9197C141.345 60.0109 141.506 60.0589 141.671 60.0577C141.78 60.0585 141.889 60.0374 141.99 59.9956C142.091 59.9537 142.182 59.8921 142.259 59.8142C142.336 59.7362 142.397 59.6436 142.438 59.5418C142.479 59.44 142.499 59.331 142.497 59.2212Z" fill="#231815"/>
<path d="M146.128 55.7094H146.96V60.7034H146.128V60.3221C146.029 60.4721 145.894 60.5947 145.736 60.6786C145.577 60.7624 145.4 60.8048 145.222 60.8018C145.017 60.803 144.815 60.7621 144.627 60.6818C144.439 60.6015 144.269 60.4835 144.128 60.3349C143.987 60.1863 143.878 60.0103 143.807 59.8177C143.736 59.6252 143.705 59.4201 143.716 59.2151C143.703 59.0138 143.732 58.8122 143.799 58.6224C143.867 58.4326 143.973 58.2587 144.11 58.1113C144.247 57.9639 144.412 57.8461 144.596 57.7652C144.78 57.6843 144.978 57.6419 145.179 57.6406C145.365 57.6314 145.55 57.6707 145.716 57.7548C145.882 57.8389 146.024 57.9648 146.128 58.1203V55.7094ZM144.573 59.2151C144.575 59.3775 144.625 59.5356 144.717 59.6695C144.808 59.8034 144.937 59.9072 145.087 59.9676C145.237 60.0281 145.402 60.0427 145.56 60.0095C145.719 59.9764 145.864 59.8969 145.977 59.7812C146.091 59.6655 146.168 59.5186 146.198 59.3591C146.229 59.1996 146.212 59.0345 146.15 58.8846C146.087 58.7347 145.982 58.6067 145.847 58.5167C145.713 58.4267 145.555 58.3786 145.393 58.3786C145.284 58.3769 145.175 58.3975 145.074 58.4391C144.973 58.4806 144.881 58.5424 144.805 58.6206C144.728 58.6988 144.668 58.7918 144.628 58.8939C144.588 58.9961 144.569 59.1054 144.573 59.2151Z" fill="#231815"/>
<path d="M148.448 57.739V59.418C148.438 59.5119 148.449 59.6067 148.48 59.6959C148.51 59.7851 148.56 59.8666 148.625 59.9347C148.744 60.0339 148.893 60.0883 149.047 60.0884C149.202 60.0872 149.351 60.033 149.47 59.9347C149.535 59.8666 149.584 59.7851 149.615 59.6959C149.646 59.6067 149.657 59.5119 149.647 59.418V57.739H150.48V59.5533C150.491 59.7226 150.465 59.8922 150.402 60.0498C150.34 60.2073 150.243 60.3488 150.119 60.4636C149.804 60.6837 149.431 60.8017 149.047 60.8017C148.664 60.8017 148.29 60.6837 147.976 60.4636C147.852 60.3488 147.755 60.2073 147.692 60.0498C147.63 59.8922 147.604 59.7226 147.615 59.5533V57.739H148.448Z" fill="#231815"/>
<path d="M153.357 58.6431C153.174 58.4682 152.93 58.3731 152.678 58.3786C152.567 58.3724 152.456 58.3898 152.352 58.4296C152.248 58.4694 152.154 58.5308 152.075 58.6098C151.997 58.6887 151.935 58.7835 151.896 58.8878C151.856 58.9921 151.839 59.1036 151.845 59.2151C151.842 59.328 151.863 59.4403 151.905 59.5449C151.948 59.6496 152.011 59.7444 152.091 59.8234C152.172 59.9024 152.267 59.964 152.372 60.0043C152.478 60.0446 152.59 60.0627 152.702 60.0577C152.945 60.056 153.178 59.964 153.357 59.7993V60.6173C153.12 60.7374 152.858 60.8006 152.592 60.8018C152.171 60.8073 151.764 60.6511 151.453 60.3652C151.3 60.2205 151.178 60.045 151.097 59.8499C151.016 59.6549 150.977 59.4449 150.982 59.2335C150.973 59.0226 151.008 58.8121 151.085 58.6153C151.161 58.4186 151.277 58.2398 151.425 58.0902C151.573 57.9406 151.751 57.8234 151.946 57.7461C152.142 57.6687 152.351 57.6328 152.561 57.6406C152.837 57.6363 153.109 57.6974 153.357 57.8189V58.6431Z" fill="#231815"/>
<path d="M156.748 59.8732C156.634 60.1625 156.432 60.4082 156.17 60.575C155.908 60.7418 155.601 60.8212 155.291 60.8019C155.085 60.8108 154.878 60.7784 154.684 60.7066C154.489 60.6349 154.311 60.5251 154.159 60.3836C154.004 60.2342 153.883 60.0531 153.804 59.8525C153.725 59.652 153.689 59.4367 153.7 59.2212C153.693 59.0073 153.729 58.7942 153.806 58.5945C153.883 58.3948 153.999 58.2127 154.147 58.0588C154.295 57.9171 154.47 57.8069 154.661 57.735C154.853 57.6632 155.057 57.631 155.261 57.6406C155.477 57.6272 155.693 57.6641 155.893 57.7484C156.092 57.8327 156.27 57.962 156.412 58.1265C156.663 58.4618 156.789 58.8757 156.767 59.295V59.3627H154.557C154.554 59.5391 154.603 59.7124 154.698 59.8609C154.769 59.9549 154.862 60.0298 154.969 60.0792C155.075 60.1285 155.193 60.1507 155.31 60.1438C155.45 60.1488 155.589 60.1147 155.711 60.0452C155.833 59.9757 155.934 59.8736 156.002 59.7502L156.748 59.8732ZM155.983 58.8276C155.956 58.6604 155.871 58.5083 155.742 58.3986C155.614 58.2888 155.451 58.2285 155.282 58.2285C155.114 58.2285 154.951 58.2888 154.822 58.3986C154.694 58.5083 154.608 58.6604 154.581 58.8276H155.983Z" fill="#231815"/>
<path d="M159.534 55.7094H160.366V60.7034H159.534V60.3221C159.435 60.4725 159.301 60.5954 159.142 60.6793C158.984 60.7632 158.807 60.8054 158.628 60.8018C158.423 60.803 158.221 60.7621 158.033 60.6818C157.845 60.6015 157.675 60.4835 157.534 60.3349C157.393 60.1863 157.284 60.0103 157.213 59.8177C157.142 59.6252 157.111 59.4201 157.122 59.2151C157.109 59.0138 157.138 58.8122 157.206 58.6224C157.273 58.4326 157.379 58.2587 157.516 58.1113C157.653 57.9639 157.818 57.8461 158.002 57.7652C158.186 57.6843 158.384 57.6419 158.585 57.6406C158.771 57.6308 158.956 57.6699 159.123 57.754C159.289 57.8381 159.431 57.9644 159.534 58.1203V55.7094ZM157.979 59.2151C157.981 59.3775 158.031 59.5356 158.123 59.6695C158.215 59.8034 158.344 59.9072 158.494 59.9676C158.644 60.0281 158.808 60.0427 158.967 60.0095C159.125 59.9764 159.27 59.8969 159.383 59.7812C159.497 59.6655 159.574 59.5186 159.604 59.3591C159.635 59.1996 159.618 59.0345 159.556 58.8846C159.493 58.7347 159.388 58.6067 159.254 58.5167C159.119 58.4267 158.961 58.3786 158.799 58.3786C158.69 58.3769 158.581 58.3975 158.48 58.4391C158.379 58.4806 158.288 58.5424 158.211 58.6206C158.134 58.6988 158.074 58.7918 158.034 58.8939C157.994 58.9961 157.976 59.1054 157.979 59.2151Z" fill="#231815"/>
<path d="M163.305 58.1203C163.414 57.9675 163.558 57.8439 163.726 57.7603C163.893 57.6767 164.079 57.6356 164.266 57.6406C164.467 57.64 164.666 57.6812 164.85 57.7616C165.034 57.842 165.2 57.9598 165.337 58.1077C165.474 58.2556 165.579 58.4303 165.645 58.6209C165.711 58.8114 165.738 59.0137 165.723 59.2151C165.736 59.4181 165.708 59.6218 165.64 59.8135C165.572 60.0051 165.465 60.1808 165.327 60.3295C165.189 60.4782 165.022 60.5968 164.836 60.6781C164.65 60.7593 164.45 60.8014 164.247 60.8018C164.063 60.8049 163.881 60.7628 163.717 60.6792C163.553 60.5956 163.411 60.4731 163.305 60.3221V60.7034H162.472V55.7094H163.305V58.1203ZM163.225 59.2151C163.227 59.3778 163.278 59.5361 163.37 59.6702C163.461 59.8042 163.591 59.9079 163.741 59.9682C163.892 60.0285 164.056 60.0427 164.215 60.0091C164.373 59.9754 164.518 59.8953 164.632 59.779C164.745 59.6626 164.821 59.5152 164.851 59.3553C164.881 59.1954 164.863 59.0301 164.8 58.8803C164.737 58.7306 164.631 58.603 164.495 58.5137C164.36 58.4244 164.201 58.3774 164.039 58.3786C163.93 58.3778 163.823 58.3989 163.722 58.4409C163.622 58.4828 163.531 58.5447 163.455 58.6228C163.379 58.7009 163.319 58.7936 163.28 58.8954C163.24 58.9972 163.222 59.1059 163.225 59.2151Z" fill="#231815"/>
<path d="M167.18 60.2668L165.778 57.7451H166.745L167.657 59.4303L168.477 57.7451H169.414L167.051 62.2718H166.108L167.18 60.2668Z" fill="#231815"/>
<path d="M169.622 53.5383H173.564V54.8853H172.267V60.7034H170.889V54.8853H169.622V53.5383Z" fill="#231815"/>
<path d="M181.455 60.6604V57.4253C181.455 57.1546 181.562 56.8949 181.753 56.7034C181.943 56.512 182.202 56.4044 182.471 56.4044C182.741 56.4044 182.999 56.512 183.19 56.7034C183.38 56.8949 183.487 57.1546 183.487 57.4253V60.6481H184.871V57.4253C184.84 56.8062 184.573 56.2227 184.126 55.7955C183.679 55.3684 183.085 55.1302 182.468 55.1302C181.851 55.1302 181.258 55.3684 180.81 55.7955C180.363 56.2227 180.097 56.8062 180.065 57.4253V60.6604H181.455Z" fill="#231815"/>
<path d="M179.294 58.0281C179.294 58.5998 179.125 59.1587 178.809 59.634C178.493 60.1094 178.044 60.4799 177.518 60.6987C176.992 60.9175 176.414 60.9747 175.856 60.8632C175.298 60.7516 174.785 60.4763 174.383 60.0721C173.98 59.6678 173.706 59.1527 173.595 58.592C173.484 58.0313 173.541 57.4501 173.759 56.9219C173.977 56.3937 174.345 55.9422 174.818 55.6246C175.292 55.307 175.848 55.1374 176.417 55.1374C176.795 55.1374 177.169 55.2122 177.518 55.3575C177.867 55.5027 178.184 55.7156 178.451 55.9841C178.719 56.2525 178.93 56.5712 179.075 56.9219C179.22 57.2726 179.294 57.6485 179.294 58.0281ZM176.417 56.4413C176.105 56.4413 175.799 56.5344 175.539 56.7087C175.28 56.8831 175.077 57.1309 174.958 57.4208C174.838 57.7108 174.807 58.0298 174.868 58.3376C174.929 58.6454 175.079 58.9282 175.3 59.1501C175.521 59.372 175.802 59.5231 176.109 59.5843C176.415 59.6456 176.733 59.6142 177.021 59.4941C177.31 59.374 177.557 59.1706 177.73 58.9096C177.904 58.6487 177.996 58.3419 177.996 58.0281C177.997 57.8195 177.957 57.6128 177.878 57.4199C177.799 57.227 177.682 57.0517 177.535 56.9042C177.389 56.7567 177.214 56.6399 177.022 56.5604C176.83 56.481 176.625 56.4405 176.417 56.4413Z" fill="#231815"/>
<path d="M185.159 53.5383H189.095V54.8853H187.797V60.7034H186.42V54.8853H185.159V53.5383Z" fill="#231815"/>
<path d="M196.991 60.6604V57.4253C196.991 57.1546 197.099 56.8949 197.289 56.7034C197.48 56.512 197.738 56.4044 198.008 56.4044C198.277 56.4044 198.536 56.512 198.726 56.7034C198.917 56.8949 199.024 57.1546 199.024 57.4253V60.6481H200.407V57.4253C200.407 56.7859 200.154 56.1727 199.704 55.7206C199.254 55.2684 198.644 55.0144 198.008 55.0144C197.371 55.0144 196.761 55.2684 196.311 55.7206C195.861 56.1727 195.608 56.7859 195.608 57.4253V60.6604H196.991Z" fill="#231815"/>
<path d="M194.824 58.0281C194.824 58.5998 194.656 59.1587 194.34 59.634C194.023 60.1094 193.574 60.4799 193.048 60.6987C192.523 60.9175 191.944 60.9747 191.386 60.8632C190.828 60.7516 190.315 60.4763 189.913 60.0721C189.51 59.6678 189.236 59.1527 189.125 58.592C189.014 58.0313 189.071 57.4501 189.289 56.9219C189.507 56.3937 189.876 55.9422 190.349 55.6246C190.822 55.307 191.378 55.1374 191.947 55.1374C192.71 55.1374 193.442 55.442 193.982 55.9841C194.521 56.5262 194.824 57.2614 194.824 58.0281ZM191.953 56.4413C191.641 56.4413 191.336 56.5344 191.076 56.7087C190.816 56.8831 190.614 57.1309 190.494 57.4208C190.375 57.7108 190.343 58.0298 190.404 58.3376C190.465 58.6454 190.616 58.9282 190.837 59.1501C191.058 59.372 191.339 59.5231 191.645 59.5843C191.952 59.6456 192.269 59.6142 192.558 59.4941C192.846 59.374 193.093 59.1706 193.267 58.9096C193.44 58.6487 193.533 58.3419 193.533 58.0281C193.534 57.8195 193.493 57.6128 193.414 57.4199C193.335 57.227 193.219 57.0517 193.072 56.9042C192.925 56.7567 192.751 56.6399 192.559 56.5604C192.367 56.481 192.161 56.4405 191.953 56.4413Z" fill="#231815"/>
<path d="M211.61 60.8018C211.684 60.7988 211.759 60.8119 211.828 60.8404C211.897 60.8689 211.96 60.912 212.011 60.9669C212.062 61.0218 212.101 61.0871 212.125 61.1584C212.148 61.2297 212.156 61.3052 212.148 61.38C212.153 61.4576 212.141 61.5353 212.113 61.608C212.086 61.6806 212.043 61.7464 211.988 61.8011C211.933 61.8558 211.867 61.8981 211.794 61.9252C211.722 61.9523 211.644 61.9635 211.567 61.9581C211.492 61.9622 211.417 61.9498 211.347 61.9217C211.277 61.8936 211.215 61.8504 211.163 61.7953C211.112 61.7402 211.073 61.6745 211.05 61.6027C211.027 61.5309 211.019 61.4549 211.028 61.38C211.024 61.3023 211.036 61.2246 211.063 61.152C211.091 61.0794 211.134 61.0135 211.189 60.9588C211.244 60.9041 211.31 60.8618 211.382 60.8347C211.455 60.8077 211.533 60.7965 211.61 60.8018ZM220.712 60.8018C220.787 60.7988 220.862 60.8119 220.931 60.8404C221 60.8689 221.063 60.912 221.114 60.9669C221.165 61.0218 221.204 61.0871 221.227 61.1584C221.251 61.2297 221.259 61.3052 221.251 61.38C221.256 61.4576 221.244 61.5353 221.216 61.608C221.188 61.6806 221.146 61.7464 221.09 61.8011C221.035 61.8558 220.969 61.8981 220.897 61.9252C220.824 61.9523 220.747 61.9635 220.67 61.9581C220.595 61.9612 220.52 61.948 220.451 61.9196C220.382 61.8911 220.32 61.8479 220.268 61.793C220.217 61.7382 220.179 61.6729 220.155 61.6016C220.131 61.5303 220.123 61.4547 220.131 61.38C220.126 61.3023 220.138 61.2246 220.166 61.152C220.194 61.0794 220.237 61.0135 220.292 60.9588C220.347 60.9041 220.413 60.8618 220.485 60.8347C220.558 60.8077 220.635 60.7965 220.712 60.8018ZM229.589 60.8018C229.695 60.7991 229.801 60.8158 229.901 60.8511V61.0356C229.807 60.9695 229.697 60.9311 229.583 60.9249C229.491 60.9249 229.417 60.9618 229.417 61.054C229.417 61.1463 229.552 61.2324 229.705 61.2816C229.858 61.3308 229.987 61.4046 229.987 61.6014C229.987 61.7982 229.778 61.9581 229.558 61.9581C229.433 61.96 229.309 61.9391 229.191 61.8966C229.191 61.8289 229.191 61.7613 229.191 61.6875C229.3 61.7728 229.432 61.8241 229.57 61.8351C229.668 61.8351 229.748 61.792 229.748 61.6752C229.748 61.5583 229.632 61.5091 229.503 61.4599C229.374 61.4107 229.179 61.3369 229.179 61.134C229.179 60.931 229.356 60.808 229.583 60.808M208.928 60.808C209.069 60.8084 209.208 60.8249 209.345 60.8572V61.0602C209.224 60.9809 209.085 60.9343 208.941 60.9249C208.726 60.9249 208.641 61.0971 208.641 61.3185C208.641 61.5399 208.818 61.829 209.057 61.829C209.093 61.8357 209.131 61.8357 209.167 61.829V61.4169H209.357V61.8905C209.233 61.9513 209.097 61.9809 208.959 61.9766C208.879 61.9819 208.799 61.9693 208.725 61.9396C208.65 61.91 208.583 61.864 208.529 61.8051C208.474 61.7462 208.434 61.6758 208.409 61.5991C208.385 61.5224 208.379 61.4412 208.39 61.3615C208.385 61.2877 208.397 61.2137 208.423 61.1445C208.449 61.0753 208.489 61.0125 208.541 60.9601C208.593 60.9078 208.656 60.8672 208.725 60.841C208.794 60.8148 208.867 60.8035 208.941 60.808M213.495 61.0848C213.495 61.2693 213.287 61.3431 213.287 61.3431C213.287 61.3431 213.569 61.3861 213.569 61.626C213.569 61.8658 213.281 61.9704 213.024 61.9704H212.718V60.8634C212.718 60.8634 212.901 60.8634 213.024 60.8634C213.146 60.8634 213.489 60.8634 213.489 61.1155M226.675 60.8756V61.011H226.32V61.9888H226.087V61.011H225.732V60.8756H226.675ZM214.671 60.8756L215.081 61.9888H214.799L214.683 61.669H214.254L214.144 61.9888H213.954L214.364 60.8756H214.671ZM218.288 61.1893C218.288 61.6075 217.823 61.5768 217.676 61.5768V61.9888H217.444V60.8818C217.444 60.8818 217.627 60.8818 217.756 60.8818C218.007 60.8818 218.288 60.9126 218.288 61.2078M215.84 61.8843H215.913C216.033 61.8853 216.152 61.8708 216.268 61.8412V62.0012H215.607V60.8203H215.84V61.8843ZM223.877 60.8941V61.054C223.761 61.0251 223.642 61.0106 223.522 61.011H223.369V61.3677H223.792V61.4845H223.369V61.8843H223.479C223.599 61.8853 223.718 61.8708 223.834 61.8412V62.0012H223.137V60.8203H223.804L223.877 60.8941ZM227.416 62.0073H227.183V60.8941H227.416V62.0073ZM210.22 61.8843H210.294C210.413 61.8853 210.533 61.8708 210.649 61.8412V62.0012H209.988V60.8203H210.22V61.8843ZM228.701 61.054C228.585 61.0251 228.466 61.0106 228.346 61.011H228.266V61.3677H228.689V61.4845H228.266V61.8843H228.377C228.496 61.8847 228.616 61.8702 228.732 61.8412V62.0012H228.034V60.8203H228.701V61.054ZM222.702 61.2078C222.702 61.626 222.237 61.5952 222.09 61.5952V62.0073H221.857V60.9003C221.857 60.9003 222.041 60.9003 222.169 60.9003C222.426 60.9003 222.702 60.931 222.702 61.2262M219.176 60.9003C219.525 60.9003 219.678 60.974 219.678 61.2016C219.673 61.2824 219.641 61.359 219.586 61.4184C219.531 61.4778 219.458 61.5164 219.378 61.5276L219.776 62.0257H219.5L219.176 61.546V61.4538H219.213C219.245 61.4576 219.278 61.454 219.309 61.4434C219.34 61.4328 219.368 61.4154 219.392 61.3924C219.415 61.3694 219.433 61.3415 219.445 61.3106C219.456 61.2797 219.46 61.2467 219.458 61.2139C219.458 61.0602 219.347 60.9925 219.2 60.9925C219.16 60.9866 219.119 60.9866 219.078 60.9925V62.0012H218.845V60.8941C218.845 60.8941 219.035 60.8941 219.188 60.8941M224.802 60.8941C225.151 60.8941 225.304 60.9679 225.304 61.1955C225.299 61.2762 225.266 61.3528 225.212 61.4122C225.157 61.4717 225.083 61.5102 225.004 61.5214L225.402 62.0196H225.12L224.796 61.5399V61.4476H224.832C224.865 61.4514 224.898 61.4479 224.929 61.4373C224.96 61.4266 224.988 61.4092 225.012 61.3862C225.035 61.3633 225.053 61.3353 225.064 61.3044C225.076 61.2736 225.08 61.2405 225.077 61.2078C225.077 61.054 224.967 60.9864 224.82 60.9864C224.779 60.9812 224.738 60.9812 224.698 60.9864V61.995H224.465V60.888C224.465 60.888 224.655 60.888 224.808 60.888M213.085 61.503H212.963V61.8966C213.009 61.9046 213.057 61.9046 213.103 61.8966C213.133 61.8992 213.162 61.8956 213.19 61.8858C213.218 61.8761 213.243 61.8606 213.265 61.8402C213.286 61.8199 213.303 61.7952 213.314 61.7678C213.326 61.7404 213.331 61.7109 213.33 61.6813C213.329 61.6531 213.323 61.6252 213.311 61.5994C213.3 61.5736 213.283 61.5503 213.263 61.5309C213.242 61.5115 213.218 61.4963 213.192 61.4862C213.166 61.4762 213.138 61.4714 213.11 61.4722H213.054M211.573 60.9987C211.395 60.9987 211.304 61.1524 211.304 61.3861C211.304 61.6198 211.426 61.9028 211.653 61.9028C211.879 61.9028 211.922 61.7428 211.922 61.5153C211.922 61.2877 211.799 60.9987 211.573 60.9987ZM220.676 60.9987C220.498 60.9987 220.406 61.1524 220.406 61.3861C220.406 61.6198 220.535 61.9028 220.755 61.9028C220.976 61.9028 221.025 61.7428 221.025 61.5153C221.025 61.2877 220.902 60.9987 220.676 60.9987ZM214.505 61.0786L214.34 61.5522H214.677L214.505 61.0786ZM222.163 60.9987H222.059V61.4538C222.102 61.4616 222.145 61.4616 222.188 61.4538C222.347 61.4538 222.451 61.3861 222.451 61.2078C222.451 61.0294 222.31 60.9741 222.163 60.9741M217.78 60.9741H217.676V61.4292C217.719 61.437 217.762 61.437 217.805 61.4292C217.964 61.4292 218.068 61.3615 218.068 61.1832C218.068 61.0048 217.927 60.9494 217.78 60.9494M213.061 60.9494H212.963V61.3123C212.991 61.3165 213.02 61.3165 213.048 61.3123C213.189 61.3123 213.269 61.2447 213.269 61.1032C213.269 60.9617 213.159 60.9371 213.054 60.931M229.993 58.7784V59.6517H208.378V59.5041L229.968 58.7784H229.993ZM228.646 54.0611C229.028 54.0503 229.408 54.1216 229.76 54.2702L229.803 55.2112L229.619 55.2666C229.423 54.6515 229.105 54.3256 228.67 54.3256C228.601 54.3214 228.531 54.333 228.466 54.3597C228.402 54.3863 228.344 54.4272 228.297 54.4793C228.199 54.5911 228.149 54.7367 228.156 54.8853C228.156 54.9635 228.173 55.0408 228.207 55.1111C228.241 55.1815 228.291 55.2431 228.352 55.2912C228.579 55.449 228.829 55.5714 229.093 55.654C229.357 55.7421 229.596 55.8918 229.791 56.0907C229.936 56.2733 230.01 56.503 229.999 56.7365C230.007 56.9139 229.973 57.0906 229.899 57.2521C229.826 57.4135 229.715 57.5551 229.576 57.6652C229.236 57.9082 228.824 58.0275 228.407 58.0035C227.96 58.0119 227.516 57.9347 227.097 57.7759L227.054 56.6812L227.238 56.6258C227.489 57.3269 227.85 57.6775 228.328 57.6775C228.412 57.6821 228.496 57.6692 228.575 57.6396C228.654 57.6099 228.726 57.5642 228.787 57.5053C228.843 57.4551 228.888 57.3935 228.919 57.3246C228.949 57.2557 228.965 57.181 228.965 57.1055C228.965 57.03 228.949 56.9553 228.919 56.8864C228.888 56.8175 228.843 56.7559 228.787 56.7057C228.603 56.566 228.395 56.4598 228.175 56.3921C227.892 56.3083 227.631 56.1634 227.409 55.9677C227.323 55.876 227.257 55.7677 227.213 55.6492C227.17 55.5308 227.152 55.4048 227.158 55.2789C227.158 55.1139 227.196 54.9512 227.268 54.803C227.34 54.6549 227.445 54.5252 227.575 54.424C227.884 54.1796 228.271 54.0551 228.664 54.0734M225.291 54.0734C225.507 54.0622 225.722 54.1007 225.921 54.186C226.119 54.2713 226.295 54.4011 226.436 54.5655C226.72 54.9339 226.863 55.3919 226.84 55.857H224.508C224.464 56.269 224.583 56.6818 224.838 57.0071C224.958 57.1549 225.111 57.2718 225.284 57.3478C225.458 57.4238 225.647 57.4567 225.836 57.4438C226.136 57.4506 226.43 57.3553 226.669 57.1732L226.779 57.3023C226.618 57.5145 226.408 57.6835 226.167 57.7944C225.875 57.9554 225.545 58.0359 225.212 58.0274C224.879 58.019 224.554 57.9221 224.27 57.7464C223.987 57.5708 223.754 57.3228 223.597 57.0276C223.44 56.7325 223.363 56.4007 223.375 56.0661C223.357 55.5494 223.537 55.0452 223.877 54.6577C224.056 54.4628 224.276 54.3099 224.52 54.2099C224.765 54.11 225.028 54.0655 225.291 54.0796M214.199 54.0796C214.454 54.0611 214.71 54.1008 214.947 54.1956C215.185 54.2904 215.398 54.4378 215.57 54.6269C215.897 55.0211 216.067 55.5228 216.048 56.0354C216.069 56.5547 215.884 57.0613 215.534 57.4438C215.351 57.635 215.13 57.7845 214.885 57.8821C214.64 57.9798 214.377 58.0232 214.113 58.0096C213.859 58.0285 213.603 57.9891 213.365 57.8943C213.128 57.7995 212.915 57.6517 212.742 57.4622C212.418 57.0666 212.248 56.566 212.265 56.0538C212.244 55.5344 212.429 55.0279 212.779 54.6454C212.961 54.455 213.181 54.306 213.425 54.2084C213.669 54.1108 213.931 54.0668 214.193 54.0796M220.706 52.5789C220.67 53.1263 220.664 53.7167 220.664 54.3502C220.933 54.2101 221.23 54.1304 221.533 54.1165C221.738 54.1131 221.941 54.1567 222.126 54.2441C222.312 54.3315 222.475 54.4604 222.604 54.6208C222.894 54.9822 223.044 55.4364 223.026 55.9001C223.039 56.182 222.996 56.4637 222.899 56.7288C222.803 56.9938 222.654 57.2369 222.463 57.4438C222.26 57.6393 222.018 57.7905 221.754 57.8879C221.489 57.9853 221.208 58.0267 220.927 58.0096C220.448 57.9967 219.972 57.9349 219.507 57.8251C219.507 57.5545 219.537 56.8411 219.537 55.7156C219.537 54.5901 219.537 53.8705 219.507 53.5383C219.494 53.4167 219.461 53.2981 219.409 53.1878C219.381 53.1501 219.345 53.1197 219.304 53.0993C219.262 53.0789 219.216 53.0692 219.17 53.0709H219.005V52.8864L220.676 52.5666L220.706 52.5789ZM212.748 52.6896L212.791 54.1534L212.528 54.2272C212.289 53.4399 211.873 53.0463 211.267 53.0463H210.392C210.392 53.4707 210.336 54.1718 210.336 55.1559H210.949C211.273 55.1559 211.481 54.9037 211.591 54.4363H211.812V56.2199H211.591C211.481 55.7402 211.267 55.5003 210.949 55.488H210.336C210.336 56.0477 210.336 56.5459 210.392 56.9887C210.389 57.1712 210.433 57.3512 210.52 57.5114C210.566 57.5673 210.623 57.6134 210.687 57.6472C210.751 57.6809 210.821 57.7017 210.894 57.7082H211.187V57.9297H208.378V57.7082L208.61 57.6775C208.682 57.6734 208.752 57.6537 208.815 57.6197C208.879 57.5857 208.934 57.5383 208.977 57.4807C209.058 57.3181 209.102 57.1396 209.106 56.9579C209.192 55.8587 209.192 54.7544 209.106 53.6552C209.11 53.4726 209.065 53.2923 208.977 53.1324C208.885 53.0221 208.753 52.9517 208.61 52.9356H208.378V52.7142H212.736L212.748 52.6896ZM218.754 54.0796C218.927 54.0745 219.1 54.1125 219.256 54.1903L218.852 55.2051C218.635 55.0641 218.38 54.9952 218.123 55.0083C217.903 55.0083 217.762 55.0944 217.701 55.2051C217.642 55.8742 217.642 56.5471 217.701 57.2162C217.701 57.5114 217.841 57.6775 218.05 57.696H218.343V57.9051H216.023V57.696H216.189C216.397 57.696 216.513 57.5114 216.538 57.2162C216.605 56.4962 216.605 55.7714 216.538 55.0513C216.538 54.7561 216.397 54.59 216.189 54.5716H216.023V54.4178L217.682 54.0919V54.9652C217.778 54.7091 217.943 54.4852 218.16 54.3194C218.322 54.1827 218.524 54.1029 218.735 54.0919M214.126 54.344C213.654 54.344 213.416 54.9099 213.416 56.06C213.402 56.4778 213.464 56.8947 213.599 57.29C213.728 57.616 213.918 57.782 214.156 57.782C214.628 57.782 214.866 57.2162 214.866 56.0538C214.882 55.6359 214.82 55.2187 214.683 54.8238C214.554 54.4978 214.364 54.3317 214.126 54.344ZM220.994 54.5593C220.861 54.5576 220.729 54.5763 220.602 54.6146C220.602 56.3306 220.602 57.3823 220.645 57.7267L220.921 57.7698C221.196 57.7698 221.41 57.5975 221.588 57.2531C221.774 56.8531 221.864 56.4151 221.851 55.9739C221.864 55.6209 221.784 55.2707 221.618 54.9591C221.565 54.8406 221.479 54.7397 221.37 54.6679C221.262 54.5961 221.136 54.5563 221.006 54.5531M225.151 54.344C224.942 54.344 224.789 54.4732 224.673 54.7377C224.554 55.0176 224.491 55.3187 224.489 55.6233H225.646C225.646 54.7807 225.481 54.3932 225.157 54.3932" fill="#231815"/>
<path d="M204.503 50.5001H204.35V64H204.503V50.5001Z" fill="#231815"/>
</svg>
